HIERARCHY
ROOT Hips
{
 OFFSET 0.000000 0.000000 0.000000
 CHANNELS 6 Xposition Yposition Zposition Yrotation Xrotation Zrotation
 JOINT Chest
 {
  OFFSET 0.000000 9.585900 0.002600
  CHANNELS 3 Yrotation Xrotation Zrotation
  JOINT Chest2
  {
   OFFSET 0.000000 9.601200 -0.005300
   CHANNELS 3 Yrotation Xrotation Zrotation
   JOINT Chest3
   {
    OFFSET 0.000000 9.561800 0.000000
    CHANNELS 3 Yrotation Xrotation Zrotation
    JOINT Chest4
    {
     OFFSET 0.000000 9.552100 0.000000
     CHANNELS 3 Yrotation Xrotation Zrotation
     JOINT Neck
     {
      OFFSET 0.000000 14.453000 0.000000
      CHANNELS 3 Yrotation Xrotation Zrotation
      JOINT Head
      {
       OFFSET 0.000000 8.936500 -0.011300
       CHANNELS 3 Yrotation Xrotation Zrotation
       End Site
       {
        OFFSET 0.000000 17.073600 -0.006000
       }
      }
     }
     JOINT RightCollar
     {
      OFFSET -2.921100 9.558500 0.000000
      CHANNELS 3 Yrotation Xrotation Zrotation
      JOINT RightShoulder
      {
       OFFSET -13.519700 0.000000 0.000000
       CHANNELS 3 Yrotation Xrotation Zrotation
       JOINT RightElbow
       {
        OFFSET 0.000000 -29.696600 0.000000
        CHANNELS 3 Yrotation Xrotation Zrotation
        JOINT RightWrist
        {
         OFFSET 0.000000 -24.004700 0.000000
         CHANNELS 3 Yrotation Xrotation Zrotation
         End Site
         {
          OFFSET 0.000000 -17.728500 0.000000
         }
        }
       }
      }
     }
     JOINT LeftCollar
     {
      OFFSET 2.921100 9.558500 0.000000
      CHANNELS 3 Yrotation Xrotation Zrotation
      JOINT LeftShoulder
      {
       OFFSET 13.519700 0.000000 0.000000
       CHANNELS 3 Yrotation Xrotation Zrotation
       JOINT LeftElbow
       {
        OFFSET 0.000000 -29.696600 0.000000
        CHANNELS 3 Yrotation Xrotation Zrotation
        JOINT LeftWrist
        {
         OFFSET 0.000000 -24.004700 0.000000
         CHANNELS 3 Yrotation Xrotation Zrotation
         End Site
         {
          OFFSET 0.000000 -17.728500 0.000000
         }
        }
       }
      }
     }
    }
   }
  }
 }
 JOINT RightHip
 {
  OFFSET -7.771700 -0.012900 -0.001300
  CHANNELS 3 Yrotation Xrotation Zrotation
  JOINT RightKnee
  {
   OFFSET 0.000000 -40.869800 0.001200
   CHANNELS 3 Yrotation Xrotation Zrotation
   JOINT RightAnkle
   {
    OFFSET 0.000000 -39.717900 0.002100
    CHANNELS 3 Yrotation Xrotation Zrotation
    JOINT RightToe
    {
     OFFSET 0.000000 -4.965400 11.033500
     CHANNELS 3 Yrotation Xrotation Zrotation
     End Site
     {
      OFFSET 0.000000 -1.423100 5.872300
     }
    }
   }
  }
 }
 JOINT LeftHip
 {
  OFFSET 7.771700 -0.012900 -0.001300
  CHANNELS 3 Yrotation Xrotation Zrotation
  JOINT LeftKnee
  {
   OFFSET 0.000000 -40.869800 0.001200
   CHANNELS 3 Yrotation Xrotation Zrotation
   JOINT LeftAnkle
   {
    OFFSET 0.000000 -39.717900 0.002100
    CHANNELS 3 Yrotation Xrotation Zrotation
    JOINT LeftToe
    {
     OFFSET 0.000000 -4.965400 11.033500
     CHANNELS 3 Yrotation Xrotation Zrotation
     End Site
     {
      OFFSET 0.000000 -1.423100 5.872300
     }
    }
   }
  }
 }
}
MOTION
Frames: 7
Frame Time: 0.008333
-19.413984 62.074296 12.103190 174.169531 -51.275913 -0.513462 4.345360 27.308546 1.714388 0.641869 4.767107 0.248015 1.025699 7.534262 0.419273 3.296972 22.102625 1.705841 -0.031296 15.960361 0.455094 -0.217629 -6.173982 0.899370 6.564868 4.149567 3.268362 -6.756715 -5.044059 -11.900404 -84.617397 -45.485467 131.900477 -5.180910 13.412931 -21.544669 -7.665001 1.954572 1.451281 -0.230449 -4.389513 11.765960 84.903634 -57.142672 -121.971995 25.771890 12.863136 18.359135 2.888855 -15.917220 -4.512049 -1.959174 60.962087 -5.270744 1.872607 -6.276196 10.581567 0.220055 -0.491610 0.099777 -2.414959 -12.775487 4.107453 25.777160 76.957379 26.342541 0.992027 -11.844531 -3.415759 0.248375 0.598820 0.113199
-19.415205 62.073392 12.102606 174.170183 -51.275088 -0.512022 4.346904 27.312371 1.705325 0.641086 4.763784 0.253215 1.025246 7.539681 0.415738 3.293948 22.114034 1.685315 -0.021804 15.948982 0.467736 -0.213079 -6.175322 0.896168 6.607482 4.126812 3.274940 -6.783697 -5.042072 -11.886516 -84.606245 -45.507318 131.890550 -5.170936 13.423528 -21.523354 -7.680811 1.934754 1.452786 -0.212791 -4.406292 11.802300 84.846037 -57.143455 -121.941014 25.767610 12.864800 18.347163 2.888078 -15.919863 -4.519396 -1.959164 60.965407 -5.265122 1.873550 -6.273832 10.580652 0.220647 -0.493652 0.096703 -2.418201 -12.777136 4.102508 25.796639 76.955751 26.362009 0.996637 -11.843453 -3.419759 0.256408 0.594895 0.114970
-19.416221 62.073198 12.101411 174.168188 -51.279179 -0.508243 4.347317 27.319983 1.700880 0.641405 4.770441 0.247590 1.025783 7.539511 0.417127 3.295495 22.109466 1.686456 -0.021110 15.948606 0.463956 -0.202757 -6.182719 0.870174 6.637497 4.118542 3.266584 -6.778533 -5.046533 -11.891646 -84.600783 -45.517426 131.869103 -5.171038 13.410719 -21.520557 -7.685216 1.928873 1.451710 -0.207503 -4.411765 11.809577 84.826986 -57.151610 -121.932433 25.769004 12.863836 18.342465 2.887854 -15.914712 -4.528238 -1.975961 60.964805 -5.271767 1.886040 -6.278785 10.574375 0.210130 -0.487456 0.096649 -2.417591 -12.773190 4.096632 25.812044 76.955247 26.376368 1.007893 -11.842459 -3.416132 0.243631 0.593096 0.109598
-19.416836 62.072797 12.100348 174.164027 -51.281064 -0.504168 4.349510 27.325519 1.698940 0.641578 4.769763 0.247427 1.026779 7.545597 0.415005 3.295163 22.106302 1.685654 -0.019696 15.944333 0.465186 -0.196217 -6.187856 0.857809 6.660679 4.109182 3.258262 -6.773537 -5.054796 -11.899635 -84.590081 -45.525452 131.851903 -5.175974 13.402089 -21.522239 -7.691887 1.922428 1.450407 -0.199624 -4.417418 11.815830 84.811598 -57.159811 -121.925514 25.774911 12.858535 18.342943 2.891810 -15.913150 -4.531853 -1.980269 60.967336 -5.269723 1.880025 -6.282237 10.571658 0.214524 -0.483568 0.097591 -2.415174 -12.771795 4.095189 25.804362 76.960540 26.364845 1.023509 -11.846081 -3.407342 0.260428 0.592961 0.103338
-19.417452 62.072361 12.099244 174.164935 -51.281761 -0.503014 4.347959 27.327921 1.696566 0.641407 4.772011 0.246604 1.029019 7.550234 0.413160 3.290663 22.110127 1.679306 -0.016016 15.938866 0.463086 -0.185263 -6.199616 0.852225 6.701341 4.093601 3.246955 -6.785399 -5.065032 -11.905175 -84.559634 -45.568278 131.820548 -5.183739 13.375743 -21.507626 -7.705603 1.901657 1.441785 -0.182812 -4.420274 11.839230 84.791938 -57.160615 -121.912349 25.769470 12.863955 18.334317 2.888900 -15.912288 -4.538846 -1.966799 60.969874 -5.252496 1.875601 -6.288376 10.572869 0.216061 -0.478222 0.093623 -2.415263 -12.771161 4.091920 25.797021 76.964308 26.360933 1.019755 -11.851112 -3.403614 0.231224 0.592465 0.101448
-19.416707 62.072031 12.098155 174.161609 -51.282203 -0.505840 4.359637 27.334977 1.707350 0.641008 4.772845 0.245530 1.023986 7.547343 0.410196 3.289526 22.119701 1.670025 -0.009262 15.930029 0.465137 -0.182200 -6.208605 0.854671 6.710473 4.077478 3.253058 -6.767127 -5.082215 -11.922220 -84.551009 -45.582834 131.793384 -5.159644 13.422560 -21.479768 -7.710059 1.884551 1.446023 -0.166460 -4.430222 11.849464 84.767162 -57.163330 -121.901478 25.763421 12.882485 18.321012 2.888136 -15.912502 -4.536181 -1.957107 60.972226 -5.240679 1.875079 -6.292572 10.576829 0.214799 -0.475615 0.087777 -2.412711 -12.770092 4.096596 25.815479 76.966967 26.383784 1.014641 -11.860218 -3.402913 0.228134 0.595788 0.099120
-19.416827 62.071009 12.097497 174.156245 -51.276252 -0.501658 4.362521 27.333500 1.704255 0.640809 4.773282 0.244596 1.024799 7.543700 0.412285 3.288014 22.121623 1.666536 -0.006420 15.928398 0.459048 -0.176456 -6.214172 0.856503 6.721115 4.073318 3.253188 -6.733629 -5.114500 -11.957161 -84.541292 -45.571678 131.742514 -5.153673 13.435550 -21.472106 -7.711069 1.879358 1.446089 -0.172600 -4.443426 11.855111 84.756706 -57.166549 -121.881527 25.751567 12.905512 18.290940 2.892282 -15.920752 -4.540085 -1.951023 60.977364 -5.231708 1.878912 -6.298114 10.578490 0.210873 -0.472923 0.085228 -2.409822 -12.776285 4.097266 25.831200 76.967672 26.400026 1.008403 -11.864169 -3.400839 0.238231 0.595245 0.099226
